<svg xmlns:mydata="http://www.w3.org/2000/svg" mydata:contrastcolor="f0f8f7" mydata:template="Contrast" mydata:presentation="2.5" mydata:layouttype="undefined" mydata:specialfontid="undefined" mydata:id1="610" mydata:id2="267" mydata:companyname="Dog Care" mydata:companytagline="Care Your Dog" version="1.1" xmlns="http://www.w3.org/2000/svg" xmlns:xlink="http://www.w3.org/1999/xlink" style="height: 215px;" viewBox="0 50 550 370"><g fill="none" fill-rule="none" stroke="none" stroke-width="1" stroke-linecap="butt" stroke-linejoin="miter" stroke-miterlimit="10" stroke-dasharray="" stroke-dashoffset="0" font-family="none" font-weight="none" font-size="none" text-anchor="none" style="mix-blend-mode: normal"><g data-paper-data="{&quot;isGlobalGroup&quot;:true,&quot;bounds&quot;:{&quot;x&quot;:141.39905212104952,&quot;y&quot;:115,&quot;width&quot;:267.20189575790096,&quot;height&quot;:240}}"><g data-paper-data="{&quot;isSecondaryText&quot;:true}" fill="#6bbbae" fill-rule="nonzero" id="element-id-61346"><path d="M153.91762,349.0675c-4.18241,0 -7.5936,-3.41119 -7.5936,-7.5936c0,-4.18241 3.41119,-7.5936 7.5936,-7.5936c1.69076,0 3.29254,0.53393 4.62735,1.57211c1.03819,0.80089 1.24583,2.28401 0.44494,3.29254c-0.80089,1.03819 -2.28401,1.24583 -3.3222,0.44494c-0.50426,-0.38561 -1.09751,-0.59325 -1.75009,-0.59325c-1.57211,0 -2.87726,1.30515 -2.87726,2.87726c0,1.57211 1.30515,2.87726 2.87726,2.87726c0.65258,0 1.24583,-0.20764 1.75009,-0.59325c1.03819,-0.80089 2.52131,-0.59325 3.3222,0.44494c0.77123,1.03819 0.59325,2.52131 -0.44494,3.29254c-1.33481,1.03819 -2.93659,1.57211 -4.62735,1.57211z" data-paper-data="{&quot;glyphName&quot;:&quot;c&quot;,&quot;glyphIndex&quot;:0,&quot;firstGlyphOfWord&quot;:true,&quot;word&quot;:1}" id="element-id-58624"></path><path d="M180.23816,333.99894c-0.7119,0 -1.30515,0.29663 -1.72043,0.83055c-1.12718,-0.59325 -2.34334,-0.9492 -3.64849,-0.9492c-4.18241,0 -7.5936,3.41119 -7.5936,7.5936c0,4.18241 3.41119,7.5936 7.5936,7.5936c1.36448,0 2.58064,-0.35595 3.70781,-0.9492c0.41528,0.41528 1.00853,0.7119 1.6611,0.7119c1.21616,0 2.22469,-1.00853 2.22469,-2.22469v-10.38188c0,-1.21616 -1.00853,-2.22469 -2.22469,-2.22469zM174.86924,344.35116c-1.60178,0 -2.87726,-1.27549 -2.87726,-2.87726c0,-1.60178 1.27549,-2.87726 2.87726,-2.87726c1.60178,0 2.87726,1.27549 2.87726,2.87726c0,1.60178 -1.27549,2.87726 -2.87726,2.87726z" data-paper-data="{&quot;glyphName&quot;:&quot;a&quot;,&quot;glyphIndex&quot;:1,&quot;word&quot;:1}" id="element-id-41828"></path><path d="M197.86758,333.90995c-0.59325,0 -1.92806,0.02966 -3.14423,0.65258c-0.41528,-0.35595 -0.91954,-0.56359 -1.48313,-0.56359c-1.24583,0 -2.22469,1.00853 -2.22469,2.22469v10.26323c0,1.30515 1.03819,2.34334 2.34334,2.34334c1.30515,0 2.34334,-1.03819 2.34334,-2.34334v-6.05115c0,-1.00853 0.86021,-1.77975 1.8984,-1.80941c1.30515,-0.02966 2.43233,-0.9492 2.49165,-2.25435c0.05933,-1.30515 -0.91954,-2.43233 -2.22469,-2.46199z" data-paper-data="{&quot;glyphName&quot;:&quot;r&quot;,&quot;glyphIndex&quot;:2,&quot;word&quot;:1}" id="element-id-33828"></path><path d="M222.67533,340.52469c-0.4746,-3.7968 -3.67815,-6.6444 -7.50462,-6.6444c-3.35186,0 -5.9325,2.10604 -6.97069,4.62735c-0.80089,1.92806 -0.83055,4.2714 0.08899,6.1698c1.1865,2.46199 3.85613,4.39005 7.26732,4.39005c1.51279,0 2.96625,-0.38561 4.24174,-1.12718c0.9492,-0.56359 1.27549,-1.80941 0.7119,-2.78828c-0.56359,-0.9492 -1.80941,-1.30515 -2.75861,-0.7119c-1.8984,1.03819 -4.36039,0.74156 -5.66554,-1.24583h7.89023c1.69076,0 2.87726,-0.88988 2.69929,-2.66963zM212.11547,339.81279c0.26696,-1.12718 1.54245,-2.19503 3.02558,-2.19503c1.51279,0 2.75861,1.06785 3.02558,2.19503z" data-paper-data="{&quot;glyphName&quot;:&quot;e&quot;,&quot;glyphIndex&quot;:3,&quot;lastGlyphOfWord&quot;:true,&quot;word&quot;:1}" id="element-id-15137"></path><path d="M257.1926,334.11759c-1.24583,-0.53393 -2.58064,0.08899 -3.11456,1.27549l-2.01705,4.9833l-2.04671,-4.9833c-0.4746,-1.1865 -1.86874,-1.77975 -3.0849,-1.27549c-1.1865,0.50426 -1.77975,1.86874 -1.30515,3.0849l4.21208,10.2039l-0.44494,1.03819c-0.50426,1.1865 -1.63144,1.8984 -2.93659,1.86874c-1.12718,0 -2.07638,0.88988 -2.07638,2.04671c-0.02966,1.51279 1.27549,2.10604 2.16536,2.10604c2.49165,0 4.746,-1.30515 5.96217,-3.14423c0.56359,-0.86021 0.97886,-1.86874 1.39414,-2.90693l4.56803,-11.21243c0.50426,-1.21616 -0.05933,-2.58064 -1.27549,-3.0849z" data-paper-data="{&quot;glyphName&quot;:&quot;y&quot;,&quot;glyphIndex&quot;:4,&quot;firstGlyphOfWord&quot;:true,&quot;word&quot;:2}" id="element-id-49343"></path><path d="M274.19911,333.88029c-4.18241,0 -7.5936,3.41119 -7.5936,7.5936c0,4.18241 3.41119,7.5936 7.5936,7.5936c4.18241,0 7.5936,-3.41119 7.5936,-7.5936c0,-4.18241 -3.41119,-7.5936 -7.5936,-7.5936zM274.19911,338.59663c1.60178,0 2.87726,1.27549 2.87726,2.87726c0,1.60178 -1.27549,2.87726 -2.87726,2.87726c-1.60178,0 -2.87726,-1.27549 -2.87726,-2.87726c0,-1.60178 1.27549,-2.87726 2.87726,-2.87726z" data-paper-data="{&quot;glyphName&quot;:&quot;o&quot;,&quot;glyphIndex&quot;:5,&quot;word&quot;:2}" id="element-id-97540"></path><path d="M296.6042,349.0675c-3.61883,0 -6.55542,-2.93659 -6.55542,-6.55542v-6.1698c0,-1.27549 1.03819,-2.34334 2.373,-2.34334c1.30515,0 2.34334,1.06785 2.34334,2.34334v6.1698c0,1.00853 0.83055,1.83908 1.83908,1.83908c1.00853,0 1.83908,-0.83055 1.83908,-1.83908v-6.1698c0,-1.27549 1.03819,-2.34334 2.34334,-2.34334c1.33481,0 2.373,1.06785 2.373,2.34334v6.1698c0,3.61883 -2.93659,6.55542 -6.55542,6.55542z" data-paper-data="{&quot;glyphName&quot;:&quot;u&quot;,&quot;glyphIndex&quot;:6,&quot;word&quot;:2}" id="element-id-86409"></path><path d="M318.26772,333.90995c-0.59325,0 -1.92806,0.02966 -3.14423,0.65258c-0.41528,-0.35595 -0.91954,-0.56359 -1.48313,-0.56359c-1.24583,0 -2.22469,1.00853 -2.22469,2.22469v10.26323c0,1.30515 1.03819,2.34334 2.34334,2.34334c1.30515,0 2.34334,-1.03819 2.34334,-2.34334v-6.05115c0,-1.00853 0.86021,-1.77975 1.8984,-1.80941c1.30515,-0.02966 2.43233,-0.9492 2.49165,-2.25435c0.05933,-1.30515 -0.91954,-2.43233 -2.22469,-2.46199z" data-paper-data="{&quot;glyphName&quot;:&quot;r&quot;,&quot;glyphIndex&quot;:7,&quot;lastGlyphOfWord&quot;:true,&quot;word&quot;:2}" id="element-id-15377"></path><path d="M341.89886,341.47389c0,4.18241 3.41119,7.5936 7.5936,7.5936c1.33481,0 2.6103,-0.35595 3.70781,-0.9492c0.41528,0.44494 0.97886,0.7119 1.63144,0.7119c1.24583,0 2.25435,-1.00853 2.25435,-2.22469v-15.00923c0,-1.21616 -1.00853,-2.22469 -2.19503,-2.25435h-0.20764c-1.30515,0 -2.31368,1.06785 -2.31368,2.34334v2.75861c-0.88988,-0.35595 -1.86874,-0.56359 -2.87726,-0.56359c-4.18241,0 -7.5936,3.41119 -7.5936,7.5936zM346.6152,341.47389c0,-1.60178 1.27549,-2.87726 2.87726,-2.87726c1.60178,0 2.87726,1.27549 2.87726,2.87726c0,1.60178 -1.27549,2.87726 -2.87726,2.87726c-1.60178,0 -2.87726,-1.27549 -2.87726,-2.87726z" data-paper-data="{&quot;glyphName&quot;:&quot;d&quot;,&quot;glyphIndex&quot;:8,&quot;firstGlyphOfWord&quot;:true,&quot;word&quot;:3}" id="element-id-34724"></path><path d="M372.93573,333.88029c-4.18241,0 -7.5936,3.41119 -7.5936,7.5936c0,4.18241 3.41119,7.5936 7.5936,7.5936c4.18241,0 7.5936,-3.41119 7.5936,-7.5936c0,-4.18241 -3.41119,-7.5936 -7.5936,-7.5936zM372.93573,338.59663c1.60178,0 2.87726,1.27549 2.87726,2.87726c0,1.60178 -1.27549,2.87726 -2.87726,2.87726c-1.60178,0 -2.87726,-1.27549 -2.87726,-2.87726c0,-1.60178 1.27549,-2.87726 2.87726,-2.87726z" data-paper-data="{&quot;glyphName&quot;:&quot;o&quot;,&quot;glyphIndex&quot;:9,&quot;word&quot;:3}" id="element-id-57303"></path><path d="M401.39197,333.90995c-0.7119,0 -1.36448,0.32629 -1.77975,0.86021c-1.03819,-0.56359 -2.25435,-0.88988 -3.52984,-0.88988c-4.21208,0 -7.5936,3.41119 -7.5936,7.5936c0,4.18241 3.38153,7.56394 7.5936,7.5936c1.00853,0 1.98739,-0.20764 2.87726,-0.56359c-0.7119,1.83908 -2.69929,2.373 -4.12309,1.69076c-1.12718,-0.53393 -2.49165,-0.05933 -3.02558,1.09751c-0.50426,1.12718 -0.02966,2.46199 1.09751,2.99591c1.00853,0.4746 2.07638,0.7119 3.20355,0.7119c4.15275,0 7.56394,-3.38153 7.56394,-7.53428v-11.30142c0,-1.24583 -1.00853,-2.25435 -2.28401,-2.25435zM396.08238,344.29183c-1.57211,0 -2.8476,-1.24583 -2.8476,-2.81794c0,-1.57211 1.27549,-2.8476 2.8476,-2.8476c1.54245,0 2.81794,1.27549 2.81794,2.8476c0,1.57211 -1.27549,2.81794 -2.81794,2.81794z" data-paper-data="{&quot;glyphName&quot;:&quot;g&quot;,&quot;glyphIndex&quot;:10,&quot;lastGlyphOfWord&quot;:true,&quot;word&quot;:3}" id="element-id-93272"></path></g><g data-paper-data="{&quot;isPrimaryText&quot;:true}" fill="#48a9c5" fill-rule="nonzero" id="element-id-7766"><path d="M161.9347,273.72545c-3.48452,-2.78814 -8.72378,-4.32191 -12.91845,-3.81122c0.02923,1.55097 0.10317,6.44289 -0.00946,9.6437c-0.1238,3.53009 -0.19086,10.65389 0.06018,14.7325c0.15647,2.55601 0.22525,5.53243 0.28629,8.15979c0.02321,1.02997 0.04643,2.02727 0.07308,2.95664c0.0662,2.28777 0.40838,7.26738 0.5167,8.82007c1.56129,0.09715 6.81946,0.22353 10.71838,-2.20781c4.5463,-2.8337 6.38872,-5.23066 7.88639,-10.25755c1.34979,-4.53427 1.34721,-10.96082 -0.00946,-16.77094c-1.25178,-5.3622 -3.0409,-8.41599 -6.60366,-11.26517zM161.77479,302.35908c-1.28531,2.98416 -3.29022,4.67182 -5.41206,5.37595c-0.53906,0.17883 -0.86146,-0.14186 -0.8649,-0.70241c-0.00516,-0.83825 0.02837,-1.67649 0.02923,-2.51474c0.00344,-4.02444 -0.03439,-12.07504 -0.05244,-12.07504c0,-4.52825 -0.00344,-9.05736 0.00086,-13.58561c0.00172,-1.9026 0.26136,-2.04102 2.02555,-1.26812c1.42459,0.62503 2.6351,2.43822 3.27991,3.75362c1.94129,3.96168 2.71678,7.33272 2.68754,11.90739c0.02837,4.88504 -0.64137,6.37497 -1.69369,9.10894zM175.73352,287.39016c-0.44191,-5.23581 -1.69455,-10.46131 -4.72599,-14.80472c-3.0452,-4.35974 -6.89941,-7.56227 -12.04151,-9.18202c-3.4828,-1.09789 -5.31921,-1.35925 -8.80803,-1.49681c-1.56043,-0.09027 -4.27033,-0.0533 -5.78605,0.04557c-1.60685,0.04557 -2.26971,0.68005 -2.43822,1.62921c-0.60268,3.63584 -0.29919,6.21076 -0.38774,7.71616c-0.12036,3.92385 -0.21579,8.69971 -0.08168,12.78605c0.00946,6.21334 0.18398,10.65389 0.61213,16.85176c0.27512,5.28052 0.47458,8.36355 0.87264,12.76455c0.1857,2.05994 0.31295,3.27905 0.59666,5.32609c0.17367,1.25694 1.14947,2.05478 2.41071,2.20695c1.33002,0.16163 2.36343,0.3224 3.66335,0.36367c3.55502,-0.01548 7.49435,-0.27426 10.54729,-1.19934c2.18116,-0.66028 3.44584,-1.26812 5.28052,-2.65745c1.88541,-1.42717 3.97544,-3.78371 5.14296,-5.83161c4.39327,-7.70843 5.78519,-13.95701 5.14296,-24.51806zM169.60358,302.07709c-1.56988,5.26848 -3.60059,7.91218 -8.35839,10.87829c-3.32117,2.07111 -7.42557,2.42447 -9.84058,2.42447c-1.17354,0 -1.94817,-0.08253 -2.0393,-0.09371c-0.26394,-0.03009 -0.46942,-0.24331 -0.48833,-0.50725c-0.0043,-0.0662 -0.47286,-6.5985 -0.55195,-9.33849c-0.02665,-0.93196 -0.04986,-1.93097 -0.07394,-2.96352c-0.06018,-2.61705 -0.1281,-5.58401 -0.28457,-8.11852c-0.25276,-4.11557 -0.18484,-11.2858 -0.06104,-14.83739c0.13326,-3.79747 0.00086,-10.00823 0,-10.07013c-0.00516,-0.27426 0.19258,-0.51154 0.4634,-0.55625c4.62196,-0.74797 10.35126,0.84856 14.25534,3.97028c3.77942,3.0237 5.67256,6.24257 6.98796,11.87558c1.39622,5.98723 1.39364,12.62958 -0.0086,17.33665z" data-paper-data="{&quot;glyphName&quot;:&quot;D&quot;,&quot;glyphIndex&quot;:0,&quot;firstGlyphOfWord&quot;:true,&quot;word&quot;:1}" id="element-id-70865"></path><path d="M197.71578,270.16613c-0.03095,-0.00086 -0.0619,-0.00086 -0.09199,-0.00086c-3.16642,0 -8.5888,2.45112 -10.38738,6.52886c-1.63952,3.71579 -2.30582,8.28015 -2.03586,13.95443c0.21322,4.48956 1.83726,13.40936 5.28482,18.22734c3.14579,4.39671 8.35065,5.35618 10.38909,5.12749c1.63179,-0.18141 7.12638,-1.3326 9.32818,-8.55097c2.12528,-6.96561 1.75559,-18.04508 0.0043,-23.29722c-2.65746,-7.97924 -6.7438,-11.90138 -12.49116,-11.98907zM205.38638,303.57561c-0.55797,2.27659 -1.41083,3.32203 -3.29796,4.49214c-2.04016,1.03513 -4.83174,-0.282 -5.82817,-1.63437c-1.22083,-1.25694 -2.3789,-2.90248 -3.16556,-6.02506c-1.08843,-3.55073 -1.55097,-6.6114 -1.48993,-12.32609c0.00172,-1.88885 0.17969,-2.93515 0.40838,-4.34942c0.30349,-1.87767 0.72734,-3.77598 1.79944,-5.46537c1.74613,-2.75203 5.52211,-3.50602 7.55625,-0.19344c1.37644,2.24134 2.53365,4.60476 3.21199,7.19344c1.00332,3.82928 1.45984,7.71788 1.49767,11.66839c0.00516,2.2379 -0.15561,4.45603 -0.69209,6.63977zM218.34094,288.83021c-0.30693,-2.61275 -0.41697,-5.11717 -1.0506,-8.28789c-0.92164,-4.60734 -2.72366,-8.89573 -5.82646,-12.09998c-2.838,-2.88529 -7.01977,-4.8283 -10.64358,-5.32523c-4.92631,-0.6749 -9.62994,0.03869 -13.84611,2.79157c-5.32953,3.47937 -7.83567,8.73753 -8.64382,14.93883c-0.32326,2.47949 -0.38,5.73275 -0.22955,8.514c0.23815,4.70192 0.61987,7.05244 1.2449,11.06657c0.45652,2.93085 1.60943,6.49705 3.06153,9.13473c1.20965,2.19835 2.3299,3.37792 3.81467,5.36477c3.27045,4.3735 7.78408,6.10501 12.97433,6.40076c1.30251,0.0748 3.19651,-0.03611 4.49214,-0.39806c2.62565,-0.73508 4.43626,-1.84414 6.66642,-3.38479c1.86306,-1.28703 3.4295,-2.92311 4.52309,-4.92631c2.87411,-5.26333 3.37964,-10.19995 3.5791,-16.91796c0.0533,-3.17846 -0.03783,-5.0097 -0.11606,-6.87104zM211.2584,305.7731c-2.39953,7.86146 -8.4607,9.12528 -10.26185,9.32388c-0.23987,0.02751 -0.50381,0.04127 -0.7858,0.04127c-2.83628,0 -7.61127,-1.41771 -10.62122,-5.62098c-3.58511,-5.01142 -5.26934,-14.20118 -5.48858,-18.81712c-0.27856,-5.84881 0.41697,-10.57652 2.127,-14.45136c1.82867,-4.1448 7.48575,-7.1857 11.39069,-7.1857c0.03955,0 0.07652,0 0.11521,0.00086c6.2718,0.09715 10.69516,4.26517 13.52027,12.74306c1.80287,5.41034 2.18804,16.80791 0.0043,23.9661z" data-paper-data="{&quot;glyphName&quot;:&quot;O&quot;,&quot;glyphIndex&quot;:1,&quot;word&quot;:1}" id="element-id-41110"></path><path d="M251.48841,300.33611c0.1238,-1.80201 0.0705,-3.59457 -0.0172,-5.38283c-0.13412,0.00086 -0.2691,0 -0.40408,0.00086c-1.50712,0.01376 -2.99189,0.02665 -4.3606,-0.03353c-0.03869,0.76861 -0.08769,1.56988 -0.13756,2.38492c-0.14358,2.3703 -0.29231,4.82056 -0.21493,6.70855l0.01892,0.46856c0.21751,5.2702 0.30263,9.38062 -0.7196,10.36416c-0.19086,0.18398 -0.41955,0.28028 -0.66544,0.28285c-0.02923,0 -0.05846,0 -0.08855,-0.00258c-5.25559,-0.41869 -8.74871,-2.42017 -10.75362,-4.0253c-3.83874,-3.07443 -8.15721,-10.19565 -8.6017,-17.33837c-0.50467,-8.10648 2.8509,-14.91648 4.89708,-18.25485c2.52248,-4.11729 7.36797,-8.00332 12.05613,-9.67035c2.83628,-1.00933 6.66556,-1.45124 8.80889,-1.63093c-0.16679,-1.27671 -0.51069,-2.42361 -1.11508,-3.13461c-0.66028,-0.83223 -2.79072,-0.82707 -3.37448,-0.79526c-3.7115,0.19774 -8.93527,2.16826 -11.45087,3.60833c-7.64395,4.37693 -11.24797,9.92054 -13.61742,17.95996c-1.28273,4.35286 -1.78998,8.66274 -1.36355,13.90887c0.47629,6.11791 2.25682,10.37964 4.87472,14.55883c1.40309,2.23876 2.94289,4.45001 5.17649,6.00098c2.47691,1.72034 5.12405,3.13977 8.0549,4.02874c1.65758,0.50381 5.24871,1.28961 8.64124,0.97752c2.84832,-0.26308 4.4268,-1.35753 4.39327,-4.62712c-0.02665,-2.53107 -0.23729,-13.44977 -0.03697,-16.35741zM231.37996,276.08544c-1.97654,3.2266 -5.22292,9.80533 -4.73631,17.61005c0.45136,7.24847 5.06215,14.03869 8.1916,16.54569c1.87509,1.50196 5.14554,3.37362 10.08475,3.78113c0.711,-0.77893 0.45996,-6.87104 0.35163,-9.49497l-0.01892,-0.46856c-0.07996,-1.94473 0.07136,-4.42336 0.21579,-6.82031c0.04901,-0.81589 0.09887,-1.61889 0.13756,-2.38492c-3.19221,-0.25878 -5.53328,-1.07811 -5.64161,-3.53869c-0.10145,-2.28949 1.59654,-3.49054 3.21628,-3.6367c1.55097,-0.13842 3.25497,0.65684 3.5,2.45026c0.1281,0.94142 0.12896,2.2293 0.07394,3.69344c1.33518,0.05674 2.80619,0.04385 4.30214,0.03095c0.11864,-0.00086 0.23729,0 0.35679,-0.00172c-0.07652,-1.42631 -0.15561,-2.85176 -0.16421,-4.28064c-0.00344,-0.5915 -0.00602,-2.37202 -0.62933,-3.40543c-0.75399,-1.70572 -2.5732,-2.40039 -3.641,-2.53021c-2.22243,-0.2691 -7.18742,-0.62245 -8.84328,0.36109c-1.50626,0.75313 -1.94645,3.80263 -2.08487,5.73618c-0.16851,2.35311 -0.39204,3.93073 -0.26824,6.29845c0.05416,1.03771 0.55453,1.69798 1.56387,1.95247c0.77291,0.19516 1.55613,0.39548 2.34709,0.46942c0.852,0.0791 1.21825,0.44534 1.21825,1.27929c0.00086,2.08057 0.06276,4.16114 0.04471,6.24085c-0.01032,1.04716 -0.28114,1.20793 -1.26038,0.84512c-3.28249,-1.21481 -4.87988,-3.8929 -6.11533,-6.86932c-0.18914,-0.65942 -1.08671,-3.2309 -1.13228,-7.21064c0.10833,-3.05036 0.49005,-6.04999 1.39106,-9.16397c0.90617,-3.13375 2.54311,-5.57455 4.84635,-7.62073c3.25583,-3.23176 8.18386,-4.65463 10.47249,-5.14038c1.55699,-0.32928 2.08143,-1.36269 2.22071,-3.17244c0.05588,-0.75485 0.06448,-1.55097 0.02321,-2.33333c-2.09347,0.17797 -5.84623,0.61127 -8.53807,1.56817c-4.46721,1.58966 -9.08229,5.29084 -11.4844,9.21039zM243.50572,288.76401c-0.07566,0.00086 -0.15045,0.0043 -0.22611,0.01204c-1.06694,0.09629 -2.28777,0.80558 -2.21383,2.48981c0.07308,1.66274 1.95591,2.27487 4.58929,2.48895c0.0533,-1.39708 0.05245,-2.61361 -0.06534,-3.47851c-0.14616,-1.07381 -1.14259,-1.5226 -2.08401,-1.51228z" data-paper-data="{&quot;glyphName&quot;:&quot;G&quot;,&quot;glyphIndex&quot;:2,&quot;lastGlyphOfWord&quot;:true,&quot;word&quot;:1}" id="element-id-75664"></path><path d="M282.54199,289.50511c0.75829,-4.03734 1.16581,-4.97961 2.73311,-7.59666c0.52702,-0.88123 1.24318,-1.54753 2.12786,-1.97826c3.20769,-1.56387 5.94338,-1.45468 8.35581,0.33444c0.07136,0.05244 0.14616,0.10059 0.22353,0.14186c1.06178,0.56571 1.57332,0.45566 2.10636,-0.44964l0.67232,-1.13228c0.39892,-0.6706 0.80042,-1.35237 1.1959,-2.04188c-1.80803,-1.49853 -4.51965,-3.53955 -6.69651,-4.28838c-3.85765,-1.32486 -6.89941,-0.20204 -9.36686,1.07038c-2.6308,1.35753 -5.84107,5.39487 -6.88823,10.48625c-0.98354,4.78187 -1.23287,10.35986 -0.68349,15.30251c0.71186,6.40592 4.16544,11.93319 8.21051,13.1437c3.68742,1.10477 8.39794,1.514 15.3902,-3.56792c-0.35593,-1.00676 -0.76603,-1.9903 -1.40739,-3.21371c-0.46082,-0.87693 -0.94313,-1.36613 -1.47617,-1.49595c-0.49263,-0.12036 -1.07038,0.0576 -1.76505,0.54336c-1.90862,1.33518 -4.04078,1.63522 -6.70253,0.95173c-2.64026,-0.67919 -4.55146,-2.30926 -5.5264,-4.71395c-0.76689,-1.89401 -0.89241,-3.39339 -0.97924,-6.1351v-0.01204c0.00258,-1.48993 0.1857,-3.9591 0.4763,-5.34844zM301.89559,273.06775c0.75743,-1.68681 0.49693,-3.07013 -0.87435,-4.62712c-3.05895,-3.46991 -7.23557,-5.16016 -12.75682,-5.16016c-0.15733,0 -0.31467,0.00086 -0.47286,0.00344c-2.61963,0.04557 -5.24097,0.99644 -7.79096,2.82854c-3.59973,2.58524 -6.35606,6.05515 -8.19332,10.31516c-0.16851,0.38946 -0.37313,0.83051 -0.58806,1.29305c-0.51842,1.11508 -1.10563,2.37718 -1.36699,3.34869c-0.81417,3.028 -1.40997,5.41034 -1.68079,8.51228c-0.18914,2.16826 -0.36711,4.74146 -0.25964,7.3972c0.17797,4.4311 1.01965,8.30337 2.57062,11.83862c0.78494,1.78826 1.60169,3.32289 3.2438,5.44989c1.9774,2.12356 3.0899,2.95235 4.77327,4.20671l0.09543,0.07136c2.20867,1.6464 4.53255,2.43736 7.5339,2.56546c0.14959,0.00688 0.34991,0.02149 0.5915,0.03955c1.3111,0.09629 3.75448,0.27598 6.0861,-0.27082c4.01756,-1.3154 5.81098,-2.85348 7.70498,-5.22722c0.01548,-0.03955 0.0705,-0.13154 0.1281,-0.22697c0.40236,-0.67232 0.90273,-1.50712 0.47544,-2.81221c-0.19086,-0.58204 -0.35765,-1.11336 -0.51412,-1.61287c-0.10661,-0.3396 -0.20806,-0.65942 -0.30865,-0.9715c-4.60477,3.27561 -8.34635,4.26087 -11.40101,4.26087c-1.77794,0 -3.32375,-0.33186 -4.67441,-0.73594c-4.52223,-1.35323 -8.21997,-7.14186 -8.9903,-14.07738c-0.57001,-5.12749 -0.32154,-10.68484 0.69897,-15.64726c1.17011,-5.68288 4.68816,-9.81135 7.46254,-11.24368c2.67465,-1.37988 5.98035,-2.59383 10.2309,-1.13228c2.28863,0.78752 5.02346,2.81393 6.89081,4.352c0.49349,-0.89499 0.96635,-1.80545 1.3859,-2.73741z" data-paper-data="{&quot;glyphName&quot;:&quot;C&quot;,&quot;glyphIndex&quot;:3,&quot;firstGlyphOfWord&quot;:true,&quot;word&quot;:2}" id="element-id-94185"></path><path d="M332.74004,304.02267c-1.26898,0.11091 -4.80938,0.37915 -9.53795,0.37915c-3.59027,-0.00086 -7.51241,-1.18214 -9.00921,-1.68165c-0.69725,4.05023 -1.39364,7.77635 -1.84242,9.28089c-0.51928,1.73581 -1.61115,5.63301 -2.51904,8.89143c0.96979,0.04385 1.94129,0.03869 2.9128,0.00602c3.57738,-0.1281 3.57738,-0.1281 4.09408,-3.64444c0.18656,-2.66605 1.07897,-5.18681 1.79084,-7.74281c0.26996,-0.96721 0.70671,-1.4564 1.78912,-1.23201c1.40224,0.28973 2.83714,0.22955 4.26259,0.2734c0.64308,0.01977 1.28875,0.11177 1.92496,0.21665c0.79956,0.13154 1.24404,0.58548 1.29305,1.44178c0.0705,1.22685 0.38774,2.42103 0.45824,3.65819c0.10575,1.87251 0.29919,3.74589 0.57259,5.6012c0.22095,1.50282 0.54937,1.61029 2.02555,1.80201c1.32228,0.17281 2.56116,0.21579 3.66679,0.20032c0.06792,-4.02014 -1.09273,-12.77487 -1.79342,-16.93257c-0.02837,-0.17453 -0.05932,-0.34475 -0.08855,-0.51756zM332.55261,302.93253c-0.8563,-4.90825 -1.78568,-9.46917 -2.8999,-14.22009c-0.85888,-3.66077 -2.12786,-7.06018 -3.35556,-10.34869c-0.85458,-2.28605 -1.66102,-4.44657 -2.26885,-6.5409c-0.44878,-1.54581 -1.0635,-2.43822 -1.68767,-2.4494c-0.0043,0 -0.00946,0 -0.01375,0c-0.80816,0 -1.76848,1.27155 -2.16224,2.46831c-0.70585,2.14591 -3.11484,13.6114 -3.88,18.20069c-0.12982,0.78064 -0.30521,1.86564 -0.51241,3.14321c-0.38946,2.40555 -0.88467,5.46021 -1.3902,8.43319c1.28789,0.43331 5.28912,1.67821 8.82007,1.67907c4.58671,0.00086 8.03513,-0.25276 9.35053,-0.36539zM320.81029,292.72312c0.48231,-2.61963 1.04974,-5.2212 1.57934,-7.83051c0.0705,-0.34733 0.40666,-0.80987 0.6448,-0.01376c1.34377,4.493 2.22758,9.11066 3.359,13.73262c0,0.40236 -0.61729,0.4058 -0.87264,0.40236c-2.91796,-0.04127 -4.50246,-0.19688 -5.13522,-0.42127c-0.711,-0.25276 -0.32068,-1.28703 0.42471,-5.86944zM341.07177,319.14034c-0.12208,-2.30668 -0.95861,-8.42631 -1.81835,-14.37227c-0.77119,-5.32781 -1.56301,-10.51548 -1.87681,-12.69749c-0.4591,-3.18963 -1.34377,-6.31909 -2.07455,-9.46659c-0.55625,-2.39438 -1.01105,-3.60231 -1.47789,-6.01388c-0.19774,-1.01965 -1.08929,-4.47322 -1.4564,-5.43699c-0.76259,-2.49668 -0.84598,-3.34525 -1.5759,-5.78691c-0.55195,-1.44178 -0.77291,-2.01523 -2.05994,-2.1932c-2.75633,-0.38086 -5.52039,-0.74281 -8.30595,-0.56399c-1.8493,0.1195 -4.21874,0.0086 -5.98465,0.88123c-1.09101,0.53992 -1.29821,1.26038 -1.52518,2.46401c-0.95689,5.09052 -1.80202,8.15463 -2.60071,13.2761c-0.51842,3.32633 -0.89499,8.68681 -1.50455,12.00368c-1.0549,5.73102 -1.79342,11.52395 -3.13031,17.19995c-0.65426,2.77696 -0.9397,4.54974 -1.53979,7.33444c-0.40494,1.88369 -0.91476,3.42692 0.81761,4.26689c0.53648,0.25964 1.77622,0.51326 2.35569,0.60784c0.46426,0.07566 0.92938,0.1324 1.3945,0.17539c0.91992,-3.30656 2.05306,-7.35077 2.5861,-9.13301c0.79526,-2.66433 2.41931,-12.68718 3.38909,-18.67526c0.2072,-1.27929 0.38344,-2.36772 0.51412,-3.14751c0.7196,-4.32277 3.13633,-15.986 3.91955,-18.3649c0.42901,-1.30251 1.63522,-3.22574 3.20769,-3.22574c0.01118,0 0.02321,0 0.03353,0c1.19074,0.02063 2.10808,1.1125 2.72709,3.2438c0.5958,2.05478 1.39622,4.19553 2.2422,6.46266c1.2406,3.32031 2.52162,6.7524 3.39683,10.48281c1.16667,4.97187 2.13129,9.73827 3.02027,14.90531c0,0 0.00086,0.00086 0.00086,0.00172v0.00086c0.05588,0.32928 0.11349,0.65426 0.17023,0.98698c0.70241,4.16802 1.85962,12.92447 1.80631,17.08131c1.19848,-0.05932 2.176,-0.17023 2.81135,-0.22267c2.67465,-0.19258 2.53795,-0.55969 2.53795,-2.07455z" data-paper-data="{&quot;glyphName&quot;:&quot;A&quot;,&quot;glyphIndex&quot;:4,&quot;word&quot;:2}" id="element-id-56160"></path><path d="M380.01454,306.72742c-2.48293,-1.49595 -3.52063,-2.24994 -6.15316,-4.45345c-2.70646,-2.34709 -3.7691,-2.90678 -5.88406,-5.76455c-0.83739,-1.10047 -1.71174,-1.81921 -0.50037,-2.04102c7.61815,-1.03427 13.54778,-6.9338 13.49877,-16.38062c-0.12036,-3.11054 -0.93024,-6.47384 -3.41832,-8.83984c-3.61349,-3.43638 -5.676,-4.30128 -10.27991,-5.9408c-2.18804,-0.77893 -7,-1.68509 -9.28261,-1.82609c-3.22918,-0.20204 -6.43945,0.09285 -9.63768,0.50983c-0.98784,0.1281 -3.05809,-0.03181 -3.19995,2.28949c-0.42643,2.35397 -0.82621,5.32179 -1.12884,7.5167c-0.81847,6.40592 -0.69209,13.62343 -0.88639,20.0818c-0.17453,5.81872 0.31123,12.41292 0.35163,17.4252c0.19602,3.6943 0.66458,6.41796 0.87092,9.64026c0.21837,1.94129 1.74613,2.0479 3.94878,2.35053c0.79268,0.06792 1.77278,0.04815 2.8423,-0.03955c-0.29575,-2.42103 -0.89499,-7.61471 -1.03169,-10.96942c-0.06104,-1.48821 -0.17195,-3.48023 -0.29317,-5.65795c-0.25019,-4.48612 -0.5339,-9.57148 -0.5339,-12.8703c0,-4.94608 0.27512,-12.93306 0.46254,-14.61471c0.33788,-3.03402 0.993,-8.36183 1.5931,-9.95922c0.10145,-0.2691 0.32842,-0.47544 0.67576,-0.61385c2.03844,-0.81589 10.34525,0.41268 13.67072,2.02125l0.40838,0.19688c3.47679,1.67391 9.29722,4.47666 9.08573,9.93601c-0.20032,5.18337 -3.17932,7.43675 -5.95542,9.14161c-2.87841,1.76848 -5.90297,2.99705 -8.9903,3.65131c-3.40629,0.72304 -4.06399,1.48563 -4.15168,1.87681c-0.09199,0.40408 0.32842,0.98956 1.18472,1.64726c3.14837,2.42103 6.09641,5.81614 8.0463,8.0635l0.63965,0.73508c1.64468,1.88025 5.53328,5.65279 9.67121,7.86662c1.36956,0.7325 2.67207,1.33604 3.93159,1.92066c0.70843,0.32842 1.38418,0.64824 2.04962,0.97408c0.35163,-1.26124 0.74797,-3.00565 0.74195,-4.634c0.03783,-1.04974 0.02837,-1.80803 -2.34623,-3.2395zM375.11661,312.67767c-4.27721,-2.28777 -8.28617,-6.17551 -9.98158,-8.1125l-0.64223,-0.73938c-1.92152,-2.21297 -4.82486,-5.55822 -7.88553,-7.91132c-1.26984,-0.9758 -1.78912,-1.88025 -1.58794,-2.76492c0.34905,-1.53722 2.85434,-2.2551 4.99939,-2.7099c2.96266,-0.62847 5.8703,-1.81061 8.64124,-3.51203c2.64972,-1.62835 5.25129,-3.60489 5.4327,-8.24748c0.18226,-4.73717 -5.02002,-7.24159 -8.46328,-8.90002l-0.41096,-0.1986c-3.53181,-1.7083 -11.88074,-2.64198 -12.85397,-1.95849c-0.40666,1.14087 -0.95517,4.64345 -1.51056,9.64112c-0.18398,1.65672 -0.45566,9.57492 -0.45566,14.49263c0,3.26787 0.28285,8.3369 0.53218,12.8084c0.12122,2.1846 0.23213,4.18263 0.29317,5.676c0.13584,3.32891 0.73594,8.51142 1.02911,10.90494c0.9354,-0.11091 1.91464,-0.26738 2.89217,-0.46168c2.61791,-0.70671 3.77942,-0.50553 4.02358,-2.70732c0.23557,-2.03156 -0.29145,-4.18865 -0.472,-6.38099c-0.46426,-5.72157 -1.22427,-7.14873 0.60955,-5.32781c1.84586,2.3832 3.14063,4.6254 5.23925,6.73778c3.0323,3.05036 6.52886,5.34156 10.59199,6.74122c0.69811,0.24159 2.02555,0.7325 2.81049,0.40064c1.73581,-0.73422 2.48895,-2.42361 3.34525,-4.47753c-0.70671,-0.34905 -1.42889,-0.69123 -2.1889,-1.04458c-1.27327,-0.58978 -2.58954,-1.2002 -3.98747,-1.94817zM357.05606,277.14205c0.08082,-1.40481 0.14186,-2.47433 0.20462,-3.54385c0.03697,-0.64395 0.42815,-0.9268 1.15549,-0.79698c3.19393,0.56657 6.09469,1.58192 8.03857,4.06571c1.60513,2.04962 1.15979,3.52149 -0.54508,5.07848c-2.1932,2.00147 -5.11373,2.49238 -8.14087,2.68669c-0.78752,0.05073 -0.7987,-0.46856 -0.77549,-0.94485c0.10833,-2.29207 -0.20892,-4.59359 0.06276,-6.5452z" data-paper-data="{&quot;glyphName&quot;:&quot;R&quot;,&quot;glyphIndex&quot;:5,&quot;word&quot;:2}" id="element-id-71511"></path><path d="M400.71299,269.19462c-3.09076,0.15389 -7.95345,0.85028 -9.31442,1.05146c-0.30865,1.30337 -1.33432,5.98207 -1.183,9.94805c0.07824,2.03672 0.01805,4.10784 -0.04643,6.30103c-0.03525,1.19848 -0.07136,2.46487 -0.09027,3.82154h15.55183c0.0576,-0.65684 0.12122,-1.31282 0.17797,-1.96966c0.19,-2.20437 -0.37399,-2.91108 -2.69528,-3.359c-0.37485,-0.07222 -0.76345,-0.09027 -1.14689,-0.12122c-1.46844,-0.11778 -2.94461,-0.17797 -4.40445,-0.36023c-1.57762,-0.19602 -1.69713,-0.36023 -1.76161,-1.80717c-0.04471,-1.01449 -0.04213,-2.03071 -0.06104,-3.04606c0.0043,0 0.00946,0 0.01375,0c-0.0129,-0.6577 -0.03267,-1.31454 -0.03525,-1.97224c-0.01633,-3.16212 0.34476,-3.79833 3.84905,-3.6857c1.98428,0.06362 3.70118,0.01806 5.4241,0.13068c2.36686,0.08941 3.1071,-0.24847 3.3719,-2.41673c0.08855,-0.83997 0.15475,-1.68767 0.19774,-2.53021c-1.28015,-0.03955 -4.91513,-0.13068 -7.8477,0.01547zM404.0608,309.8371c-1.33775,0.09543 -2.86809,0.03181 -3.9505,-0.04213c-0.78924,-0.04041 -1.7702,-0.01548 -3.1071,-0.16507c-1.45984,-0.16249 -1.17784,-2.92569 -1.17526,-4.30386c0.00258,-2.02641 0.12036,-4.05453 0.18054,-6.08094c0.03009,-1.01535 0.01462,-1.64038 0.05245,-2.65574c0.0748,-0.91734 0.80558,-1.06866 1.75559,-1.08929c1.58106,0.02751 2.7632,0.14959 4.34083,0.29575c2.19577,0.33616 2.98673,-0.2562 3.18362,-2.28003c0.06878,-0.69811 0.12638,-1.39794 0.19,-2.09691h-15.46242c-0.0086,1.76762 0.02063,3.69688 0.13068,5.84881c0.32756,6.43773 -0.0043,15.05834 -0.10661,17.38909c1.57418,-0.05502 5.85913,-0.17797 8.74957,0.02407c1.86735,0.13326 4.48956,0.04986 6.59764,-0.01462c1.12626,-0.03439 1.92066,-0.05502 2.50184,-0.05674c-0.01032,-0.82535 -0.06792,-1.67391 -0.19344,-2.60587c-0.48919,-1.92754 -1.07983,-2.38578 -3.68742,-2.16654zM401.31566,315.85356c-0.91218,0 -1.78826,-0.01977 -2.54913,-0.07394c-3.46131,-0.24245 -9.16912,-0.00086 -9.22673,0.00086c-0.15303,0.01376 -0.30521,-0.05158 -0.41439,-0.16249c-0.10833,-0.10919 -0.16765,-0.25964 -0.15905,-0.41525c0.00516,-0.10403 0.51069,-10.46303 0.13326,-17.87914c-0.12122,-2.40125 -0.1453,-4.51793 -0.12638,-6.44977c0,-0.00172 -0.00172,-0.0043 -0.00172,-0.00602c0,-0.00344 0.00172,-0.00516 0.00172,-0.00774c0.01462,-1.57676 0.05588,-3.03144 0.09543,-4.39843c0.06362,-2.17256 0.1238,-4.22562 0.04643,-6.22537c-0.18398,-4.80079 1.24146,-10.38308 1.30251,-10.61864c0.05502,-0.21407 0.23213,-0.37399 0.4505,-0.40666c0.06104,-0.00946 6.1308,-0.93368 9.78986,-1.11766c2.9704,-0.14873 6.64063,-0.0576 7.93798,-0.01633c0.0129,-0.78408 0.00344,-1.56129 -0.05846,-2.31356c-0.16163,-1.95849 -1.04286,-2.22587 -3.08646,-2.43306c-3.0899,-0.10059 -6.27352,-0.14272 -8.94043,-0.15303c-0.89757,0.02407 -5.22894,-0.09113 -7.10059,0.00946c-2.82682,0.12638 -3.53869,0.37743 -3.98059,2.23962c-1.03341,4.35458 -0.56399,10.03316 -0.79612,14.43933c-0.23557,4.46979 -0.25276,8.94817 -0.40064,13.42226c-0.1195,3.63928 -0.38172,7.27684 -0.41783,10.91697c-0.04729,4.71567 0.06362,9.4322 0.11435,14.14873c0.02493,2.30324 0.35765,2.62565 2.85348,2.79501c0.44792,0.03009 0.89757,0.01805 1.34721,0.02837c3.00651,0.0748 4.90224,0.14702 7.90875,0.1986c2.81049,0.04815 6.02849,-0.00258 8.69025,-0.23213c1.93269,-0.07136 2.46659,-0.09371 2.86379,-1.88455c0.16937,-1.28875 0.29403,-2.42103 0.33702,-3.55073c-0.67146,0.0043 -1.5931,0.03353 -2.45456,0.06018c-1.28875,0.04041 -2.7675,0.08511 -4.15942,0.08511z" data-paper-data="{&quot;glyphName&quot;:&quot;E&quot;,&quot;glyphIndex&quot;:6,&quot;lastGlyphOfWord&quot;:true,&quot;word&quot;:2}" id="element-id-54044"></path></g><g data-paper-data="{&quot;isIcon&quot;:&quot;true&quot;,&quot;iconType&quot;:&quot;icon&quot;,&quot;rawIconId&quot;:&quot;f03736fc-5fe1-40bd-b1ee-9a3efe8275a0&quot;,&quot;isSvgStockIcon&quot;:true,&quot;selectedEffects&quot;:{&quot;container&quot;:&quot;&quot;,&quot;transformation&quot;:&quot;&quot;,&quot;pattern&quot;:&quot;&quot;},&quot;combineTerms&quot;:&quot;animal,dog&quot;,&quot;combineTermsExtended&quot;:{&quot;icon&quot;:[&quot;animal&quot;,&quot;dog&quot;]},&quot;isDetailed&quot;:false,&quot;fillRule&quot;:&quot;evenodd&quot;,&quot;bounds&quot;:{&quot;x&quot;:188.70691415189356,&quot;y&quot;:115,&quot;width&quot;:172.5861716962129,&quot;height&quot;:118.32009024989617},&quot;iconStyle&quot;:&quot;standalone&quot;,&quot;suitableAsStandaloneIcon&quot;:true}" fill="#48a9c5" fill-rule="evenodd" id="element-id-87649"><path d="M245.15867,148.84191c4.12083,10.53912 8.33284,12.76365 8.33284,12.76365c5.55274,-0.30486 5.62494,-0.17195 7.62628,3.50672c0.27241,0.50106 0.58074,1.06777 0.9436,1.70814c3.34389,-0.29082 6.00074,1.0643 9.79647,3.00001c0.48867,0.24926 0.9963,0.50817 1.52671,0.77439c1.78546,-0.0589 2.22489,-0.08606 2.57935,0.07457c0.3045,0.13803 0.54611,0.41446 1.52325,0.92828c0.96475,-0.85954 2.63825,-0.57163 5.0369,-0.15881c0.09463,0.01623 0.19036,0.03282 0.28736,0.04941c2.55273,0.43761 11.10438,0.76582 19.20017,-0.78405c8.0958,-1.54987 25.7461,-5.10546 28.29883,-5.32427c2.55273,-0.2188 12.63601,-8.53341 16.86624,-14.86053c3.88397,-5.8091 2.23455,-11.71046 0.82343,-16.75867c-0.12582,-0.45001 -0.24962,-0.89345 -0.36759,-1.32924c-1.44046,-5.32427 -7.76759,-10.99497 -9.20806,-12.87305c-1.44046,-1.89632 -0.89345,-4.55844 -0.89345,-4.55844c0,0 6.89237,5.32427 12.65424,9.53627c5.76188,4.23023 6.65533,12.43544 5.65247,21.8623c-0.98462,9.4451 -10.97673,17.21268 -14.42292,23.64921c7.76759,1.23989 6.54593,9.3357 6.54593,9.3357c0,0 -0.78405,8.75222 2.44333,9.75507c5.32427,2.22452 7.53055,3.55559 6.98354,7.54878c6.89237,4.43081 2.88094,10.32032 1.33106,10.32032c-1.23753,0 -0.4987,5.87146 -0.1508,8.63643c0.08789,0.69781 0.1508,1.19777 0.1508,1.35568c0,0.78405 -0.56525,4.55844 -0.78405,5.99891c-0.89345,4.99606 -4.3214,3.53735 -6.54593,1.87808c-5.40869,2.84155 -5.77081,0.73664 -6.08661,-1.09931c-0.04084,-0.2374 -0.08096,-0.47044 -0.13111,-0.68759c-0.43761,-1.89632 2.11512,-5.10546 3.66499,-5.99891c1.54987,-0.89345 1.89632,-1.78691 2.55273,-3.44618c-7.76759,-0.65641 -7.9864,-4.3214 -7.9864,-4.3214c0,0 -1.00286,0 -2.55273,-0.2188c-8.33284,-3.88379 -29.41108,-1.44046 -29.41108,-1.44046c0,0 -4.77725,5.21486 -7.65818,6.76473c-2.99034,1.5681 -4.66784,-1.54987 -4.212,-4.3214c-7.32998,4.12083 -39.95022,6.10832 -39.95022,6.10832c0,0 -1.22166,0.1094 -0.89345,1.11226c0.32821,1.00286 0.1094,2.57096 -1.33106,4.55844c-0.2188,2.55273 -3.55559,5.76188 -3.88379,6.65533c-0.20057,2.20629 -1.20343,3.09974 -3.31855,2.99034c-1.79603,1.81354 -3.50873,1.79257 -3.94196,1.78728c-0.01987,-0.00018 -0.03683,-0.00036 -0.05124,-0.00036c-0.34644,0 -4.55844,-0.23704 -5.99891,-1.78691c-1.44046,-1.54987 -0.67465,-4.55844 1.78691,-6.10832c0.16465,-0.58093 -0.48265,-0.78241 -1.30317,-1.03805c-0.90494,-0.28189 -2.02085,-0.62943 -2.48946,-1.62408c-0.89345,-1.89632 0.1094,-4.44904 2.55273,-4.55844c2.44333,-0.1094 4.77725,-1.54987 4.77725,-3.77439c-0.54701,-1.76868 -15.18874,-10.75793 -18.30672,-13.09185c-3.11798,-2.33393 -7.11117,-5.65247 -8.33284,-9.09866c-0.71075,-2.0048 -0.59442,-3.40498 -0.43761,-5.29527c0.11287,-1.35896 0.2467,-2.97137 0.1094,-5.24385c-2.78977,1.54987 -6.67356,-1.22166 -7.22057,-3.44618c1.76868,-2.78977 2.88094,-15.31638 2.88094,-15.31638c0,0 -2.33393,1.5681 -6.65533,3.44618c-3.45184,1.50027 -7.05511,-0.8971 -9.26679,-2.36875c-0.55708,-0.37069 -1.02587,-0.68249 -1.38173,-0.85862c-1.76868,-0.87522 -2.44333,-1.65928 -4.1026,-5.43367c-2.55273,-1.33106 -4.1026,-3.86556 -4.1026,-4.64961c0,-0.78405 6.98354,-6.67356 7.87699,-7.32998c0.87522,-0.67465 2.66213,-1.00286 7.09294,-5.56131c-0.56525,-5.99891 6.09008,-9.77331 8.2052,-10.10151c2.09689,-0.32821 7.31174,-1.33106 13.52946,-1.87808c6.21772,-0.54701 8.87985,6.32712 8.87985,6.32712c0,0 6.7465,3.77439 10.86733,14.31352z" data-paper-data="{&quot;isPathIcon&quot;:true}" id="element-id-33458"></path></g></g></g><g class="watermark-group" style="opacity:0.040000010281801224"><path class="watermark-path" d="M129.52,370.3a11.88,11.88,0,0,1,2.58,5.58,12,12,0,0,1,.11,3,11.81,11.81,0,0,1-.64,2.93,12.34,12.34,0,0,1-1.41,2.72,11.65,11.65,0,0,1-2.13,2.32,12,12,0,0,1-2.64,1.69,13,13,0,0,1-2.91.9,12.47,12.47,0,0,1-3,.12,12.17,12.17,0,0,1-2.93-.64,11.8,11.8,0,0,1-2.72-1.38,12.19,12.19,0,0,1-4-4.79,11.85,11.85,0,0,1-.89-2.92,12.14,12.14,0,0,1-.13-3,11.54,11.54,0,0,1,.64-2.92,11.67,11.67,0,0,1,3.5-5,11.44,11.44,0,0,1,2.67-1.69,11.64,11.64,0,0,1,2.92-.91,10.71,10.71,0,0,1,3-.12,11.68,11.68,0,0,1,5.66,2,11.7,11.7,0,0,1,2.34,2.12m-1.4,8.76a13,13,0,0,1-1.22,2.32,9.68,9.68,0,0,1-1.81,2,7.44,7.44,0,0,1-2.38,1.37,6.17,6.17,0,0,1-5.11-.46,8.73,8.73,0,0,1-3.85-4.58,6.69,6.69,0,0,1-.34-2.66,6.09,6.09,0,0,1,.77-2.47,7.15,7.15,0,0,1,1.75-2.11,9.58,9.58,0,0,1,1.09-.81,8.23,8.23,0,0,1,1.12-.63,8.14,8.14,0,0,1,1.19-.46,12.71,12.71,0,0,1,1.32-.37l2,2.38a12.83,12.83,0,0,0-1.56.17,7.86,7.86,0,0,0-1.23.32,4.5,4.5,0,0,0-1,.49,6.41,6.41,0,0,0-.93.67,4.49,4.49,0,0,0-1.15,1.39,3.87,3.87,0,0,0-.45,1.58,4.12,4.12,0,0,0,.26,1.63,6.11,6.11,0,0,0,2.36,2.82,4.43,4.43,0,0,0,1.57.53,3.91,3.91,0,0,0,1.62-.17,4.71,4.71,0,0,0,1.57-.89,10.5,10.5,0,0,0,.83-.79,5.71,5.71,0,0,0,.65-.93,10.13,10.13,0,0,0,.54-1.14,12.24,12.24,0,0,0,.44-1.49l2,2.33m-14.46,4.55a8.86,8.86,0,0,0,2.78,2.22,9,9,0,0,0,3.29.94,9.15,9.15,0,0,0,3.39-.37,8.68,8.68,0,0,0,3.11-1.69,8.8,8.8,0,0,0,2.22-2.78,9.15,9.15,0,0,0,1-3.29,8.95,8.95,0,0,0-4.83-8.76,9,9,0,0,0-6.73-.57,9,9,0,0,0-5.33,4.47,8.94,8.94,0,0,0-.57,6.71,8.76,8.76,0,0,0,1.7,3.12"></path><path class="watermark-path" d="M147,349c-.48.12-1.09.31-1.82.57a24.37,24.37,0,0,0-2.4,1A28.35,28.35,0,0,0,140,352a20.72,20.72,0,0,0-2.71,1.94c-.7.59-1.28,1.11-1.74,1.57a15.07,15.07,0,0,0-1.1,1.22,4.09,4.09,0,0,0-.59.92,2.32,2.32,0,0,0-.22.64,1.16,1.16,0,0,0,0,.47,1.83,1.83,0,0,0,.18.29,1.15,1.15,0,0,0,1,.37,5.54,5.54,0,0,0,1.51-.38q.87-.35,1.95-.9l2.26-1.18q1.2-.65,2.49-1.29c.87-.44,1.73-.83,2.59-1.17a18.94,18.94,0,0,1,2.6-.81,9.27,9.27,0,0,1,2.46-.29,6.25,6.25,0,0,1,2.24.49,5.12,5.12,0,0,1,1.89,1.47,6.35,6.35,0,0,1,1.41,2.61,6,6,0,0,1,.09,2.6,8.3,8.3,0,0,1-.9,2.52,17.79,17.79,0,0,1-1.62,2.37,23.92,23.92,0,0,1-2,2.15c-.72.67-1.41,1.29-2.09,1.87a33.79,33.79,0,0,1-5.33,3.7,32.29,32.29,0,0,1-4.91,2.28l-3.61-4.3a21.38,21.38,0,0,0,5.39-1.87,27.2,27.2,0,0,0,5.4-3.56,21.59,21.59,0,0,0,2.38-2.27,8.67,8.67,0,0,0,1.18-1.7,2.32,2.32,0,0,0,.27-1.19,1.34,1.34,0,0,0-.28-.74,1.21,1.21,0,0,0-1-.42,4.32,4.32,0,0,0-1.55.34,15.77,15.77,0,0,0-2,.88c-.72.37-1.48.77-2.27,1.21l-2.45,1.3c-.85.45-1.7.85-2.56,1.21a22.37,22.37,0,0,1-2.54.86,10,10,0,0,1-2.43.32,5.76,5.76,0,0,1-2.2-.45,5,5,0,0,1-1.89-1.45,6.12,6.12,0,0,1-1.31-2.41,6,6,0,0,1-.1-2.41,8.28,8.28,0,0,1,.81-2.38,14.06,14.06,0,0,1,1.49-2.24,22.37,22.37,0,0,1,1.85-2.05q1-1,2-1.77c.7-.59,1.44-1.15,2.23-1.7s1.62-1.06,2.44-1.53,1.63-.91,2.43-1.3,1.58-.75,2.3-1L147,349"></path><path class="watermark-path" d="M186.76,337.57l-10.6-12.63,3.92,18.24-4.66,3.91-17.27-7,10.6,12.63-4.86,4.07-15.09-18,6.59-5.54,18.69,7.52-4.15-19.71,6.57-5.52,15.09,18-4.83,4.05"></path><path class="watermark-path" d="M208.84,313.24l-10,8.42,1.16,4.82L194.56,331l-5.68-25.89,5.42-4.55,24.51,10.09-5.42,4.55-4.55-2m-11.23,3.45,6.57-5.52-8.83-3.87,2.26,9.39"></path><path class="watermark-path" d="M227.49,281.38c-.48.12-1.09.31-1.82.57a24.37,24.37,0,0,0-2.4,1,26.11,26.11,0,0,0-2.7,1.47,20.72,20.72,0,0,0-2.71,1.94c-.7.59-1.28,1.11-1.74,1.57a13.39,13.39,0,0,0-1.1,1.22,4.29,4.29,0,0,0-.59.91,2.48,2.48,0,0,0-.22.65,1.16,1.16,0,0,0,0,.47,1.83,1.83,0,0,0,.18.29,1.15,1.15,0,0,0,1,.37,5.54,5.54,0,0,0,1.51-.38q.87-.34,2-.9l2.26-1.18q1.2-.64,2.49-1.29c.87-.44,1.73-.83,2.59-1.17a18.94,18.94,0,0,1,2.6-.81,9.27,9.27,0,0,1,2.46-.29,6.08,6.08,0,0,1,2.24.49,5.09,5.09,0,0,1,1.89,1.46,6.47,6.47,0,0,1,1.41,2.61,6.07,6.07,0,0,1,.09,2.61,8.3,8.3,0,0,1-.9,2.52,16.32,16.32,0,0,1-1.63,2.36,21.41,21.41,0,0,1-2,2.16c-.72.67-1.41,1.29-2.1,1.86a33.36,33.36,0,0,1-5.32,3.71,31.92,31.92,0,0,1-4.92,2.28l-3.6-4.3a21.38,21.38,0,0,0,5.39-1.87,27.2,27.2,0,0,0,5.4-3.56,21.59,21.59,0,0,0,2.38-2.27,8.67,8.67,0,0,0,1.18-1.7A2.32,2.32,0,0,0,231,293a1.34,1.34,0,0,0-.28-.74,1.21,1.21,0,0,0-1-.42,4.32,4.32,0,0,0-1.55.34,16.54,16.54,0,0,0-2,.88c-.71.37-1.47.77-2.26,1.21l-2.46,1.3c-.84.44-1.7.85-2.55,1.21a24.53,24.53,0,0,1-2.54.86A10,10,0,0,1,214,298a5.76,5.76,0,0,1-2.2-.45,5,5,0,0,1-1.89-1.45,6.12,6.12,0,0,1-1.31-2.41,5.78,5.78,0,0,1-.1-2.41,8,8,0,0,1,.81-2.38,14.61,14.61,0,0,1,1.49-2.25,22.26,22.26,0,0,1,1.85-2q1-1,2-1.77c.7-.59,1.44-1.15,2.23-1.7s1.62-1.06,2.44-1.53,1.63-.91,2.43-1.31,1.58-.74,2.3-1l3.5,4.16"></path><path class="watermark-path" d="M261.64,274.74l-6.29-7.5L243,277.61l6.3,7.5-4.86,4.07-15.09-18,4.85-4.08,5.49,6.55L252,263.3l-5.49-6.55,4.86-4.07,15.09,18-4.86,4.08"></path><path class="watermark-path" d="M272.18,265.9l-15.09-18,4.86-4.08,15.09,18-4.86,4.08"></path><path class="watermark-path" d="M299.65,242.85l-22.51-2.18L287.51,253l-4.85,4.08-15.1-18,5.28-4.43,22.56,2.22L285,224.5l4.83-4.06,15.09,18-5.26,4.42"></path><path class="watermark-path" d="M306.68,205.52a31.88,31.88,0,0,1,5.29-3.66,34.48,34.48,0,0,1,5.14-2.35l3.69,4.39a20.77,20.77,0,0,0-2.37.61,20.47,20.47,0,0,0-2.61,1,25.12,25.12,0,0,0-2.76,1.49,23.9,23.9,0,0,0-2.8,2,20.42,20.42,0,0,0-2.8,2.77,12.77,12.77,0,0,0-1.64,2.52,7,7,0,0,0-.68,2.24,6,6,0,0,0,.66,3.64,8.16,8.16,0,0,0,.94,1.38,9.12,9.12,0,0,0,1.08,1.07,6.39,6.39,0,0,0,1.47.91,6.73,6.73,0,0,0,1.88.48,6.54,6.54,0,0,0,2.28-.18,11.67,11.67,0,0,0,2.74-1.07,19.38,19.38,0,0,0,3.18-2.22c.57-.48,1.06-.92,1.46-1.31a14.57,14.57,0,0,0,1-1.13,11.46,11.46,0,0,0,.81-1.05l.74-1.09-1.82-2.17-5.45,4.57-3.31-3.94,10.31-8.65,7.71,9.19a29,29,0,0,1-1.67,2.43q-1,1.26-2.1,2.52c-.74.84-1.5,1.65-2.3,2.44s-1.58,1.5-2.33,2.14a31,31,0,0,1-3.59,2.61,22.55,22.55,0,0,1-3.64,1.83,15.64,15.64,0,0,1-3.63.89,10.72,10.72,0,0,1-3.49-.15,10.45,10.45,0,0,1-3.28-1.33,12.54,12.54,0,0,1-3-2.67,12,12,0,0,1-2.08-3.44,10.45,10.45,0,0,1-.71-3.5,11.14,11.14,0,0,1,.51-3.51,15.72,15.72,0,0,1,1.56-3.43,21.62,21.62,0,0,1,2.42-3.28,30.3,30.3,0,0,1,3.15-3"></path><path class="watermark-path" d="M336.91,211.59l-15.1-18,4.86-4.08,11.79,14,13.13-11,3.31,3.94-18,15.1"></path><path class="watermark-path" d="M374.54,164.71a12.28,12.28,0,0,1,2.59,4.81,10.44,10.44,0,0,1,0,5,14.62,14.62,0,0,1-2.33,5,25.55,25.55,0,0,1-4.56,4.85,26.07,26.07,0,0,1-5.6,3.67,14.79,14.79,0,0,1-5.38,1.43,10.43,10.43,0,0,1-4.94-.89,13.24,13.24,0,0,1-6.87-8.18,10.48,10.48,0,0,1,0-5,14.51,14.51,0,0,1,2.36-5,25.23,25.23,0,0,1,4.57-4.89,25,25,0,0,1,5.59-3.64,14.45,14.45,0,0,1,5.35-1.43,10.31,10.31,0,0,1,4.93.92,12.22,12.22,0,0,1,4.28,3.38m-4.91,4.11a8.36,8.36,0,0,0-2-1.72,5.5,5.5,0,0,0-2.65-.85,7.72,7.72,0,0,0-3.32.57,14.49,14.49,0,0,0-4,2.52,16.72,16.72,0,0,0-2.38,2.4,10.15,10.15,0,0,0-1.39,2.24,6.71,6.71,0,0,0-.56,2.1,5.69,5.69,0,0,0,.1,1.9,6.21,6.21,0,0,0,.61,1.69,9.85,9.85,0,0,0,1,1.44,10.48,10.48,0,0,0,1.26,1.23,6.67,6.67,0,0,0,1.57.92,6.1,6.1,0,0,0,1.85.41,6.8,6.8,0,0,0,2.15-.2,11.06,11.06,0,0,0,2.45-1,17.67,17.67,0,0,0,2.77-1.94,14.39,14.39,0,0,0,3.18-3.52,7.74,7.74,0,0,0,1.14-3.17,5.54,5.54,0,0,0-.37-2.74,8.52,8.52,0,0,0-1.36-2.3"></path><path class="watermark-path" d="M382.66,141.76A32.3,32.3,0,0,1,388,138.1a34.12,34.12,0,0,1,5.15-2.35l3.69,4.4a19.62,19.62,0,0,0-2.37.6,22.08,22.08,0,0,0-2.61,1,26,26,0,0,0-2.77,1.49,23.9,23.9,0,0,0-2.8,2,21,21,0,0,0-2.8,2.78,13.19,13.19,0,0,0-1.64,2.51,7.29,7.29,0,0,0-.68,2.24,6.36,6.36,0,0,0,.06,2,5.8,5.8,0,0,0,.61,1.68,8.12,8.12,0,0,0,.93,1.38,9.16,9.16,0,0,0,1.08,1.08,6.56,6.56,0,0,0,1.48.9,6,6,0,0,0,1.87.48,6.76,6.76,0,0,0,2.28-.17,12,12,0,0,0,2.74-1.08,18.57,18.57,0,0,0,3.18-2.22c.58-.48,1.06-.92,1.46-1.31s.75-.77,1.05-1.12.57-.72.81-1.06l.73-1.09-1.82-2.17-5.45,4.57-3.3-3.94,10.3-8.65,7.71,9.19a29,29,0,0,1-1.67,2.43q-1,1.26-2.1,2.52c-.73.84-1.5,1.66-2.3,2.44s-1.57,1.5-2.33,2.14a31,31,0,0,1-3.59,2.61,22.15,22.15,0,0,1-3.64,1.83,15.56,15.56,0,0,1-3.62.89,11,11,0,0,1-3.49-.14,10.84,10.84,0,0,1-3.28-1.33,12.82,12.82,0,0,1-3-2.68,12.12,12.12,0,0,1-2.08-3.43A10.71,10.71,0,0,1,375,155a11.18,11.18,0,0,1,.51-3.51,15.51,15.51,0,0,1,1.57-3.43,21.44,21.44,0,0,1,2.42-3.28,30.19,30.19,0,0,1,3.14-3"></path><path class="watermark-path" d="M428.63,119.31a12.26,12.26,0,0,1,2.59,4.82,10.44,10.44,0,0,1,0,5,14.53,14.53,0,0,1-2.34,5,25.29,25.29,0,0,1-4.56,4.86,26,26,0,0,1-5.59,3.67,14.84,14.84,0,0,1-5.38,1.43,10.61,10.61,0,0,1-4.95-.89,12.15,12.15,0,0,1-4.3-3.37,12,12,0,0,1-2.56-4.81,10.48,10.48,0,0,1,0-5,14.39,14.39,0,0,1,2.35-5,27.89,27.89,0,0,1,10.16-8.53,14.49,14.49,0,0,1,5.36-1.43,10.27,10.27,0,0,1,4.92.92,12.21,12.21,0,0,1,4.28,3.37m-4.91,4.12a8.17,8.17,0,0,0-2-1.72,5.58,5.58,0,0,0-2.65-.86,7.86,7.86,0,0,0-3.31.58,14.49,14.49,0,0,0-4,2.52,16.21,16.21,0,0,0-2.38,2.4,9.85,9.85,0,0,0-1.4,2.24,7,7,0,0,0-.56,2.1,6,6,0,0,0,.1,1.9,6.23,6.23,0,0,0,.62,1.69,8.49,8.49,0,0,0,1,1.44,9.18,9.18,0,0,0,1.26,1.23,6.67,6.67,0,0,0,1.57.92,6,6,0,0,0,1.84.41,6.86,6.86,0,0,0,2.16-.2,11.26,11.26,0,0,0,2.45-1,17.62,17.62,0,0,0,2.76-1.94,14.67,14.67,0,0,0,3.19-3.52,7.71,7.71,0,0,0,1.13-3.17,5.53,5.53,0,0,0-.36-2.74,8.55,8.55,0,0,0-1.37-2.3"></path></g><rect data-element-id="element-id-87649" stroke-width="2" fill="transparent" class="invisible-element-box grouping-element" x="189" y="115" width="173" height="118" data-element-name="isIcon"></rect><rect data-element-id="element-id-33458" stroke-width="2" fill="transparent" class="invisible-element-box individual-element" x="189" y="115" width="173" height="118"></rect><rect data-element-id="element-id-7766" stroke-width="2" fill="transparent" class="invisible-element-box grouping-element" x="141" y="260" width="267" height="61" data-element-name="isPrimaryText"></rect><rect data-element-id="element-id-61346" stroke-width="2" fill="transparent" class="invisible-element-box grouping-element" x="146" y="329" width="257" height="26" data-element-name="isSecondaryText"></rect><rect data-element-id="element-id-71511" stroke-width="2" fill="transparent" class="invisible-element-box individual-element" x="343" y="261" width="39" height="60"></rect><rect data-element-id="element-id-41110" stroke-width="2" fill="transparent" class="invisible-element-box individual-element" x="178" y="263" width="40" height="58"></rect><rect data-element-id="element-id-56160" stroke-width="2" fill="transparent" class="invisible-element-box individual-element" x="304" y="263" width="37" height="59"></rect><rect data-element-id="element-id-70865" stroke-width="2" fill="transparent" class="invisible-element-box individual-element" x="141" y="262" width="34" height="60"></rect><rect data-element-id="element-id-94185" stroke-width="2" fill="transparent" class="invisible-element-box individual-element" x="268" y="263" width="34" height="58"></rect><rect data-element-id="element-id-75664" stroke-width="2" fill="transparent" class="invisible-element-box individual-element" x="220" y="260" width="31" height="61"></rect><rect data-element-id="element-id-54044" stroke-width="2" fill="transparent" class="invisible-element-box individual-element" x="384" y="263" width="25" height="58"></rect><rect data-element-id="element-id-93272" stroke-width="2" fill="transparent" class="invisible-element-box individual-element" x="388" y="334" width="15" height="21"></rect><rect data-element-id="element-id-34724" stroke-width="2" fill="transparent" class="invisible-element-box individual-element" x="342" y="329" width="15" height="20"></rect><rect data-element-id="element-id-49343" stroke-width="2" fill="transparent" class="invisible-element-box individual-element" x="244" y="334" width="14" height="21"></rect><rect data-element-id="element-id-41828" stroke-width="2" fill="transparent" class="invisible-element-box individual-element" x="167" y="334" width="15" height="15"></rect><rect data-element-id="element-id-15137" stroke-width="2" fill="transparent" class="invisible-element-box individual-element" x="208" y="334" width="15" height="15"></rect><rect data-element-id="element-id-97540" stroke-width="2" fill="transparent" class="invisible-element-box individual-element" x="267" y="334" width="15" height="15"></rect><rect data-element-id="element-id-57303" stroke-width="2" fill="transparent" class="invisible-element-box individual-element" x="365" y="334" width="15" height="15"></rect><rect data-element-id="element-id-58624" stroke-width="2" fill="transparent" class="invisible-element-box individual-element" x="146" y="334" width="13" height="15"></rect><rect data-element-id="element-id-86409" stroke-width="2" fill="transparent" class="invisible-element-box individual-element" x="290" y="334" width="13" height="15"></rect><rect data-element-id="element-id-33828" stroke-width="2" fill="transparent" class="invisible-element-box individual-element" x="191" y="334" width="9" height="15"></rect><rect data-element-id="element-id-15377" stroke-width="2" fill="transparent" class="invisible-element-box individual-element" x="311" y="334" width="9" height="15"></rect></svg>